<?xml version="1.0" standalone="no"?><!DOCTYPE svg PUBLIC "-//W3C//DTD SVG 1.1//EN" "http://www.w3.org/Graphics/SVG/1.1/DTD/svg11.dtd"><svg t="1605794086139" class="icon" viewBox="0 0 1024 1024" version="1.1" xmlns="http://www.w3.org/2000/svg" p-id="2837" xmlns:xlink="http://www.w3.org/1999/xlink" width="200" height="200"><defs><style type="text/css"></style></defs><path d="M942.691556 411.235556a40.391111 40.391111 0 0 0-32.597334-27.491556l-250.069333-36.366222L548.124444 120.775111A40.376889 40.376889 0 0 0 512 98.275556a40.376889 40.376889 0 0 0-36.124444 22.499555l-111.900445 226.602667-250.069333 36.366222a40.192 40.192 0 0 0-32.597334 27.491556 40.448 40.448 0 0 0 10.211556 41.344l180.992 176.355555-42.567111 249.102222a40.391111 40.391111 0 0 0 16.042667 39.409778 40.248889 40.248889 0 0 0 42.453333 3.043556l223.672889-117.617778 223.687111 117.617778c5.831111 3.043556 12.288 4.622222 18.730667 4.622222a40.263111 40.263111 0 0 0 39.765333-47.075556l-42.680889-249.088 180.977778-176.355555a40.647111 40.647111 0 0 0 10.097778-41.358222z" fill="#FFB84D" p-id="2838"></path></svg>